<?xml version="1.0" encoding="UTF-8" standalone="no"?>
<!-- The icon can be used freely in both personal and commercial projects with no attribution required, but always appreciated. 
You may NOT sub-license, resell, rent, redistribute or otherwise transfer the icon without express written permission from iconmonstr.com -->

<svg
   xmlns:dc="http://purl.org/dc/elements/1.1/"
   xmlns:cc="http://creativecommons.org/ns#"
   xmlns:rdf="http://www.w3.org/1999/02/22-rdf-syntax-ns#"
   xmlns:svg="http://www.w3.org/2000/svg"
   xmlns="http://www.w3.org/2000/svg"
   xmlns:sodipodi="http://sodipodi.sourceforge.net/DTD/sodipodi-0.dtd"
   xmlns:inkscape="http://www.inkscape.org/namespaces/inkscape"
   version="1.1"
   x="0px"
   y="0px"
   width="512px"
   height="512px"
   viewBox="0 0 512 512"
   enable-background="new 0 0 512 512"
   xml:space="preserve"
   id="svg2"
   inkscape:version="0.48.4 r9939"
   sodipodi:docname="google-scholar.svg"><metadata
   id="metadata9"><rdf:RDF><cc:Work
       rdf:about=""><dc:format>image/svg+xml</dc:format><dc:type
         rdf:resource="http://purl.org/dc/dcmitype/StillImage" /><dc:title /></cc:Work></rdf:RDF></metadata><defs
   id="defs7" /><sodipodi:namedview
   pagecolor="#ffffff"
   bordercolor="#666666"
   borderopacity="1"
   objecttolerance="10"
   gridtolerance="10"
   guidetolerance="10"
   inkscape:pageopacity="0"
   inkscape:pageshadow="2"
   inkscape:window-width="1504"
   inkscape:window-height="892"
   id="namedview5"
   showgrid="false"
   inkscape:zoom="1.3037281"
   inkscape:cx="245.57304"
   inkscape:cy="237.17047"
   inkscape:window-x="32"
   inkscape:window-y="164"
   inkscape:window-maximized="0"
   inkscape:current-layer="svg2" />



<g
   id="g3068"
   transform="translate(27.194805,0)"><path
     id="google-plus-circle-icon"
     d="m 254.949,207.894 c -3.083,-23.466 -18.371,-42.719 -36.234,-43.256 -17.869,-0.532 -29.854,17.427 -26.767,40.899 3.085,23.467 20.067,39.859 37.939,40.398 17.863,0.532 28.144,-14.572 25.062,-38.041 z m 18.42,123.765 c 0,20.247 -16.443,36.065 -50.481,36.065 -26.625,0 -45.852,-16.854 -45.852,-37.1 0,-19.84 22.562,-36.957 49.186,-36.664 29.54,0.001 47.147,18.398 47.147,37.699 z m -88.22006,-198.9715 -54.53125,69.40625 36.5625,0 c -0.0915,1.28167 -0.15625,2.54852 -0.15625,3.84375 0,27.889 19.10875,49.875 56.46875,49.875 -5.792,11.693 -3.44575,22.49575 6.03125,30.21875 -63.807,0 -77.46875,27.9945 -77.46875,49.5625 0,27.945 32.13625,44.5625 70.65625,44.5625 52.669,-10e-4 73.59376,-27.91475 73.59376,-50.84375 0,-18.691 -6.97675,-30.89675 -28.09375,-46.71875 -21.417,-15.619 -26.66076,-24.445 -6.21875,-40.25 11.519,-8.906 19.59375,-20.7795 19.59375,-35.4375 0,-4.60499 -0.55769,-9.09703 -1.625,-13.3125 l 33.6875,-42.84375 0,9.25 c -1.94385,1.66627 -3.25,4.79203 -3.25,8.375 l 0,75.75 c 0,5.34877 2.92555,9.65625 6.53125,9.65625 3.6057,0 6.5,-4.30748 6.5,-9.65625 l 0,-75.75 c 0,-3.58297 -1.30615,-6.70873 -3.25,-8.375 l 0,-17.5625 7.65625,-9.75 -142.68751,0 z M 435.22219,257 c 0,113.771 -92.22899,206 -206,206 -113.771,0 -205.999995,-92.229 -205.999995,-206 0,-113.771 92.228995,-206 205.999995,-206 113.77101,0 206,92.229 206,206 z" /></g></svg>