<?xml version="1.0" encoding="utf-8"?>

<!-- License Agreement at http://iconmonstr.com/license/ -->

<!DOCTYPE svg PUBLIC "-//W3C//DTD SVG 1.1//EN" "http://www.w3.org/Graphics/SVG/1.1/DTD/svg11.dtd">
<svg version="1.1" xmlns="http://www.w3.org/2000/svg" xmlns:xlink="http://www.w3.org/1999/xlink" x="0px" y="0px"
	 width="512px" height="512px" viewBox="0 0 512 512" enable-background="new 0 0 512 512" xml:space="preserve">
<path id="quote-15-icon" d="M174.059,354.374c-0.031-0.008-0.062-0.014-0.093-0.021c-25.892,15.965-82.983,32.107-123.141,39.412
	c14.984-29.725,31.616-70.527,30.764-98.977C61.403,270.511,50,239.224,50,207.358c0-89.84,87.383-155.527,185.209-155.527
	c97.22,0,185.211,65.193,185.211,155.527c0,1.283-0.027,2.564-0.066,3.844c-11.285-6.088-23.506-11.037-36.622-14.68
	c-6.854-60.861-70.842-108.715-148.522-108.715c-82.237,0-149.141,53.631-149.141,119.551c0,34.688,15.009,56.529,36.192,78.068
	c-4.306,31.98-14.646,59.781-14.646,59.781s30.542-8.064,65.253-28.275C171.395,329.616,171.806,342.101,174.059,354.374z
	 M440.262,392.056C454.15,375.349,462,353.819,462,331.892c0-61.826-60.132-107.029-127.454-107.029
	c-66.901,0-127.453,44.863-127.453,107.029c0,64.73,71.498,125.184,169.6,101.154c17.817,10.986,57.105,22.094,84.739,27.123
	C451.121,439.712,439.674,411.634,440.262,392.056z M328.001,327.551c0,26.882-16.987,45.101-41.74,49.997l-4.689-10.139
	c11.462-4.319,18.733-14.66,18.733-25.078h-19.35v-44.849h47.046C328.001,297.482,328.001,311.798,328.001,327.551z
	 M394.052,327.551c0,26.882-16.986,45.101-41.738,49.997l-4.69-10.139c11.462-4.319,18.733-14.66,18.733-25.078h-19.349v-44.849
	h47.044C394.052,297.482,394.052,311.798,394.052,327.551z M229.341,213.882c0,0,0-14.822,0-31.132
	c0-27.833,17.588-46.695,43.217-51.766l4.855,10.497c-11.867,4.473-19.396,15.179-19.396,25.966h20.034v46.435H229.341z
	 M160.954,213.882c0,0,0-14.822,0-31.132c0-27.833,17.587-46.695,43.215-51.766l4.855,10.497
	c-11.867,4.473-19.396,15.179-19.396,25.966h20.033v46.435H160.954z"/>
</svg>
