<?xml version="1.0" encoding="utf-8"?>

<!-- License Agreement at http://iconmonstr.com/license/ -->

<!DOCTYPE svg PUBLIC "-//W3C//DTD SVG 1.1//EN" "http://www.w3.org/Graphics/SVG/1.1/DTD/svg11.dtd">
<svg version="1.1" xmlns="http://www.w3.org/2000/svg" xmlns:xlink="http://www.w3.org/1999/xlink" x="0px" y="0px"
	 width="512px" height="512px" viewBox="0 0 512 512" enable-background="new 0 0 512 512" xml:space="preserve">
<path id="note-12-icon" d="M432.644,359.225c-12.783,45.332-53.783,87.998-101.57,101.491c19.828-20.05,26.828-53.05,23.02-78.249
	C389.235,390.666,412,380.056,432.644,359.225z M435.667,50v242.8c0,58.7-67.098,64.292-118.75,51.511
	c0,0,26.15,117.689-57.251,117.689H76.333V50H435.667z M371.788,253.278H140.195v30h231.593V253.278z M371.788,187.861H140.195v30
	h231.593V187.861z M371.788,122.528H140.195v30h231.593V122.528z"/>
</svg>
